<svg width="1080" height="1080" viewBox="0 0 1080 1080" fill="none" xmlns="http://www.w3.org/2000/svg">
<g clip-path="url(#clip0_1_2)">
<rect width="1080" height="1080" fill="#0066CC"/>
<path fill-rule="evenodd" clip-rule="evenodd" d="M252.577 840.297H3.04315L3.04315 1079.65H29.7789C152.827 1079.65 252.577 983.969 252.577 865.942V840.297Z" fill="#A3A3A3" fill-opacity="0.2"/>
<path fill-rule="evenodd" clip-rule="evenodd" d="M553.843 1079.65H800.333V840.297H773.923C652.376 840.297 553.843 935.977 553.843 1054V1079.65Z" fill="#A3A3A3" fill-opacity="0.2"/>
<path fill-rule="evenodd" clip-rule="evenodd" d="M553.843 563H800.333V802.351H773.923C652.376 802.351 553.843 706.672 553.843 588.645V563Z" fill="#A3A3A3" fill-opacity="0.2"/>
<path fill-rule="evenodd" clip-rule="evenodd" d="M277 841H523.49V1080.35H497.081C375.533 1080.35 277 984.672 277 866.645V841Z" fill="#A3A3A3" fill-opacity="0.2"/>
<path fill-rule="evenodd" clip-rule="evenodd" d="M1074.21 802.351H827.721V563H854.13C975.678 563 1074.21 658.68 1074.21 776.706V802.351Z" fill="#A3A3A3" fill-opacity="0.2"/>
<path fill-rule="evenodd" clip-rule="evenodd" d="M246.49 802.351H1.59683e-06L1.59683e-06 563H26.4097C147.957 563 246.49 658.68 246.49 776.707V802.351Z" fill="#A3A3A3" fill-opacity="0.2"/>
<path fill-rule="evenodd" clip-rule="evenodd" d="M276.921 802.351H526.455V563H499.719C376.671 563 276.921 658.68 276.921 776.706V802.351Z" fill="#A3A3A3" fill-opacity="0.2"/>
<path fill-rule="evenodd" clip-rule="evenodd" d="M831 239.351L1080.53 239.351V2.26931e-06H1053.8C930.75 2.26931e-06 831 95.6797 831 213.707V239.351Z" fill="#A3A3A3" fill-opacity="0.2"/>
<path fill-rule="evenodd" clip-rule="evenodd" d="M831.975 277.297L1080.05 277.297V516.649H1053.47C931.143 516.649 831.975 420.969 831.975 302.942V277.297Z" fill="#A3A3A3" fill-opacity="0.2"/>
<path fill-rule="evenodd" clip-rule="evenodd" d="M807.772 277.297L559.692 277.297V516.649H586.272C708.603 516.649 807.772 420.969 807.772 302.942V277.297Z" fill="#A3A3A3" fill-opacity="0.2"/>
<path fill-rule="evenodd" clip-rule="evenodd" d="M523.388 516.649H278.333V277.297H304.589C425.428 277.297 523.388 372.977 523.388 491.004V516.649Z" fill="#A3A3A3" fill-opacity="0.2"/>
<path fill-rule="evenodd" clip-rule="evenodd" d="M4.57764e-05 516.649H248.08L248.08 277.297H221.5C99.1688 277.297 4.57764e-05 372.977 4.57764e-05 491.004L4.57764e-05 516.649Z" fill="#A3A3A3" fill-opacity="0.2"/>
<path fill-rule="evenodd" clip-rule="evenodd" d="M0 0L248.08 0L248.08 239.351H221.5C99.1688 239.351 0 143.672 0 25.6448L0 0Z" fill="#A3A3A3" fill-opacity="0.2"/>
<path fill-rule="evenodd" clip-rule="evenodd" d="M520.362 239.351L272.283 239.351V0H298.863C421.193 0 520.362 95.6797 520.362 213.707V239.351Z" fill="#A3A3A3" fill-opacity="0.2"/>
<path fill-rule="evenodd" clip-rule="evenodd" d="M801.721 239.351L556.666 239.351V0H582.922C703.761 0 801.721 95.6797 801.721 213.707V239.351Z" fill="#A3A3A3" fill-opacity="0.2"/>
<path fill-rule="evenodd" clip-rule="evenodd" d="M1080.05 1080.35H835V841H861.256C982.095 841 1080.05 936.68 1080.05 1054.71V1080.35Z" fill="#A3A3A3" fill-opacity="0.2"/>
</g>
<defs>
<clipPath id="clip0_1_2">
<rect width="1080" height="1080" fill="white"/>
</clipPath>
</defs>
</svg>
